# xmcd CD database file
#
# Track frame offsets:
#	150
#	15447
#	35493
#	55392
#	74872
#	87690
#	102628
#	118181
#	139336
#	158218
#	174745
#
# Disc length: 2646 seconds
#
# Revision: 4
# Processed by: cddbd v1.5.2PL0 Copyright (c) Steve Scherf et al.
# Submitted via: CDex 1.51
#
DISCID=a90a540b
DTITLE=B.B. KING - Guess Who
DYEAR=1972
DGENRE=Blues
TTITLE0=Summer In The City
TTITLE1=Just Can't Please You
TTITLE2=Any Other Way
TTITLE3=You Don't Know Nothin' About Love
TTITLE4=Found What I Need
TTITLE5=Neighbourhood Affair
TTITLE6=It Takes A Young Girl
TTITLE7=Better Lovin' Man
TTITLE8=Gues Who
TTITLE9=Shouldn't Have Left Me
TTITLE10=Five Long Years
EXTD=YEAR: 1972
EXTT0=
EXTT1=
EXTT2=
EXTT3=
EXTT4=
EXTT5=
EXTT6=
EXTT7=
EXTT8=
EXTT9=
EXTT10=
PLAYORDER=
